# xmcd
#
# Track frame offsets:
#	150
#	15745
#	32123
#	47493
#	63620
#
# Disc length: 918 seconds
# Revision: 0
# Processed by: cddbd v1.5.2PL0 Copyright (c) Steve Scherf et al.
# Submitted via: dBpowerAMP V12.0
#
DISCID=3b039405
DTITLE=Tamara Stewart - The Truth, The Music, and Me. Part 1 Ruin
DYEAR=2018
DGENRE=
TTITLE0=Birds In Cages
TTITLE1=Broke My Heart
TTITLE2=Piece Of my Mind
TTITLE3=Untied
TTITLE4=Eye Is On The Sparrow
EXTD=
EXTT0=
EXTT1=
EXTT2=
EXTT3=
EXTT4=
PLAYORDER=
